<svg id="Component_1_1" data-name="Component 1 – 1" xmlns="http://www.w3.org/2000/svg" width="1920" height="1080.153" viewBox="0 0 1920 1080.153">
  <g id="undraw_lost_online_wqob" transform="translate(739 225.153)">
    <path id="Path_1" data-name="Path 1" d="M0,0H1920c0,596.467-712.139,1080-1590.608,1080H0Z" transform="translate(-739 -225)" fill="#1a1922"/>
  </g>
  <g id="undraw_compose_music_ovo2" transform="translate(733 -141.06)">
    <path id="Path_30" data-name="Path 30" d="M547.084,249.17V524.346a97.571,97.571,0,0,0-29.437-4.381c-42.391,0-76.817,28.952-76.817,69.867s34.426,69.547,76.817,69.547,77.03-30.126,77.03-73.838V394.449H818.235v129.9a97.529,97.529,0,0,0-29.437-4.381c-42.391,0-76.817,28.952-76.817,69.867s34.426,69.547,76.817,69.547,77.03-30.126,77.03-73.838V249.17Zm271.16,102.552H594.685V295.113H818.243Z" transform="translate(233.6 -108.11)" fill="#fff"/>
  </g>
</svg>
