<svg xmlns="http://www.w3.org/2000/svg" width="499.98" height="500" viewBox="0 0 499.98 500">
  <g id="undraw_compose_music_ovo2" transform="translate(-674.43 -141.06)">
    <path id="Path_30" data-name="Path 30" d="M565.83,249.17V584.58a111.1,111.1,0,0,0-34.63-5.34c-49.87,0-90.37,35.29-90.37,85.16s40.5,84.77,90.37,84.77,90.62-36.72,90.62-90V426.25h263V584.58a111.051,111.051,0,0,0-34.63-5.34c-49.87,0-90.37,35.29-90.37,85.16s40.5,84.77,90.37,84.77,90.62-36.72,90.62-90v-410Zm319,125h-263v-69h263Z" transform="translate(233.6 -108.11)" fill="#d95350"/>
  </g>
</svg>
